<?xml version="1.0" encoding="UTF-8" standalone="no"?>
<svg
   xmlns:dc="http://purl.org/dc/elements/1.1/"
   xmlns:cc="http://creativecommons.org/ns#"
   xmlns:rdf="http://www.w3.org/1999/02/22-rdf-syntax-ns#"
   xmlns:svg="http://www.w3.org/2000/svg"
   xmlns="http://www.w3.org/2000/svg"
   xmlns:sodipodi="http://sodipodi.sourceforge.net/DTD/sodipodi-0.dtd"
   xmlns:inkscape="http://www.inkscape.org/namespaces/inkscape"
   version="1.1"
   width="38"
   height="38"
   viewBox="0 0 38 38"
   enable-background="new 0 0 76.00 76.00"
   xml:space="preserve"
   id="svg3859"
   inkscape:version="0.48.4 r9939"
   sodipodi:docname="crosshair.svg"><metadata
     id="metadata3867"><rdf:RDF><cc:Work
         rdf:about=""><dc:format>image/svg+xml</dc:format><dc:type
           rdf:resource="http://purl.org/dc/dcmitype/StillImage" /></cc:Work></rdf:RDF></metadata><defs
     id="defs3865" /><sodipodi:namedview
     pagecolor="#ffffff"
     bordercolor="#666666"
     borderopacity="1"
     objecttolerance="10"
     gridtolerance="10"
     guidetolerance="10"
     inkscape:pageopacity="0"
     inkscape:pageshadow="2"
     inkscape:window-width="640"
     inkscape:window-height="480"
     id="namedview3863"
     showgrid="false"
     fit-margin-top="0"
     fit-margin-left="0"
     fit-margin-right="0"
     fit-margin-bottom="0"
     inkscape:zoom="3.1052632"
     inkscape:cx="19"
     inkscape:cy="19"
     inkscape:window-x="647"
     inkscape:window-y="230"
     inkscape:window-maximized="0"
     inkscape:current-layer="svg3859" /><path
     d="m 3.2448,20.5833 -3.2448,0 0,-3.1666 3.2448,0 C 3.9875,9.9363 9.9363,3.9875 17.4167,3.2448 l 0,-3.2448 3.1666,0 0,3.2448 c 7.4804,0.7427 13.4292,6.6915 14.1719,14.1719 l 3.2448,0 0,3.1666 -3.2448,0 c -0.7427,7.4804 -6.6915,13.4292 -14.1719,14.1719 l 0,3.2448 -3.1666,0 0,-3.2448 C 9.9363,34.0125 3.9875,28.0637 3.2448,20.5833 z m 3.1865,-3.1666 3.0687,0 0,3.1666 -3.0687,0 c 0.7145,5.7297 5.2557,10.2709 10.9854,10.9854 l 0,-3.0687 3.1666,0 0,3.0687 C 26.313,30.8542 30.8542,26.313 31.5686,20.5833 l -3.0686,0 0,-3.1666 3.0686,0 C 30.8542,11.687 26.313,7.1458 20.5833,6.4314 l 0,3.0686 -3.1666,0 0,-3.0686 C 11.687,7.1458 7.1458,11.687 6.4313,17.4167 z"
     id="path3861"
     inkscape:connector-curvature="0"
     style="fill:#000000;fill-opacity:1;stroke-width:0.2;stroke-linejoin:round" /></svg>