<?xml version="1.0" encoding="UTF-8" standalone="no"?>
<svg
   xmlns:dc="http://purl.org/dc/elements/1.1/"
   xmlns:cc="http://creativecommons.org/ns#"
   xmlns:rdf="http://www.w3.org/1999/02/22-rdf-syntax-ns#"
   xmlns:svg="http://www.w3.org/2000/svg"
   xmlns="http://www.w3.org/2000/svg"
   xmlns:sodipodi="http://sodipodi.sourceforge.net/DTD/sodipodi-0.dtd"
   xmlns:inkscape="http://www.inkscape.org/namespaces/inkscape"
   enable-background="new 0 0 500 500"
   height="500px"
   id="Layer_1"
   version="1.1"
   viewBox="0 0 500 500"
   width="500px"
   xml:space="preserve"
   inkscape:version="0.48.4 r9939"
   sodipodi:docname="settings.svg"><metadata
     id="metadata9"><rdf:RDF><cc:Work
         rdf:about=""><dc:format>image/svg+xml</dc:format><dc:type
           rdf:resource="http://purl.org/dc/dcmitype/StillImage" /></cc:Work></rdf:RDF></metadata><defs
     id="defs7"><filter
       inkscape:collect="always"
       id="filter3762"><feGaussianBlur
         inkscape:collect="always"
         stdDeviation="7.3042445"
         id="feGaussianBlur3764" /></filter></defs><sodipodi:namedview
     pagecolor="#ffffff"
     bordercolor="#666666"
     borderopacity="1"
     objecttolerance="10"
     gridtolerance="10"
     guidetolerance="10"
     inkscape:pageopacity="0"
     inkscape:pageshadow="2"
     inkscape:window-width="1229"
     inkscape:window-height="720"
     id="namedview5"
     showgrid="false"
     inkscape:zoom="0.944"
     inkscape:cx="180.24517"
     inkscape:cy="144.18626"
     inkscape:window-x="0"
     inkscape:window-y="25"
     inkscape:window-maximized="0"
     inkscape:current-layer="Layer_1" /><path
     clip-rule="evenodd"
     d="m 6.5252712,421.46047 c 0,39.26398 31.7504038,71.01438 71.0143808,71.01438 19.572809,0 37.842548,-7.41085 50.722488,-20.29078 l 129.44695,-129.54522 35.20516,-35.10801 22.31293,-22.31293 c 47.47319,11.97214 99.82032,-0.51252 136.85334,-36.72261 25.46174,-24.95591 39.4739,-56.60917 41.39221,-89.37233 l 0,-1.72291 c 0,-11.06546 -9.13487,-19.99264 -20.38904,-19.99264 -5.5841,0 -10.65679,2.23989 -14.4119,5.78508 l -5.97714,5.88558 -20.49624,20.08197 c -12.88886,12.5818 -31.24681,19.9826 -51.02954,19.9826 -19.67666,0 -37.03191,-8.61789 -49.91296,-21.30018 -12.67894,-12.8777 -21.40067,-30.33456 -21.40067,-50.0101 0,-19.782726 7.40303,-38.141795 19.98371,-51.030661 l 20.08198,-20.498467 5.88334,-5.974905 c 3.55078,-3.755112 5.78509,-8.827807 5.78509,-14.415252 0,-11.25417 -8.92384,-20.3890409 -19.99153,-20.3890409 l -1.72403,0 C 307.11288,7.4457056 275.46074,21.455634 250.5037,46.917369 214.2925,83.949271 201.90945,136.29752 213.87712,183.67468 l -22.40896,22.40896 -35.20962,35.10913 -129.444722,129.54522 c -12.8777,12.87993 -20.2885468,31.14967 -20.2885468,50.72248 z m 50.7224838,-5.07269 c 0,-13.99765 11.363596,-25.35901 25.362359,-25.35901 13.999879,0 25.361246,11.36136 25.361246,25.35901 0,13.99764 -11.361367,25.36459 -25.361246,25.36459 -13.997646,0 -25.362359,-11.36695 -25.362359,-25.36459 z"
     id="path3"
     inkscape:connector-curvature="0"
     style="fill:#ffffff;fill-opacity:1;fill-rule:evenodd;filter:url(#filter3762)"
     sodipodi:nodetypes="ssccccccsscccscscccssccccccssssss" /></svg>